<svg preserveAspectRatio="none" width="100%" height="100%" overflow="visible" style="display: block;" viewBox="0 0 403.5 136.264" fill="none" xmlns="http://www.w3.org/2000/svg">
<path id="Vector 16" d="M8 127L0.5 135V0.5H403V132.5L400.5 135L392.5 127L385 135L377 127L368.5 135L361 127L353 135L344.5 127L337 135L329 127L321 135L313 127L305 135L297 127L288.5 135L280.5 127L272.5 135L265 127L257 135L249 127L240.5 135L233 127L225 135L217 127L209 135L200.5 127L192.5 135L185 127L176.5 135L168.5 127L160 135L151.5 127L143.5 135L136 127L128 135L120 127L112.5 135L104.5 127L96.5 135L88.5 127L80.5 135L72.5 127L64 135L56 127L48.5 135L40.5 127L32.5 135L24.5 127L16 135L8 127Z" fill="var(--fill-0, #005CA9)" stroke="var(--stroke-0, #005CA9)"/>
</svg>
